<svg width="25" height="24" viewBox="0 0 25 24" fill="none" xmlns="http://www.w3.org/2000/svg">
<path d="M20.5 13C20.5 18 17 20.5 12.84 21.95C12.6222 22.0238 12.3855 22.0202 12.17 21.94C8 20.5 4.5 18 4.5 13V5.99996C4.5 5.73474 4.60536 5.48039 4.79289 5.29285C4.98043 5.10532 5.23478 4.99996 5.5 4.99996C7.5 4.99996 10 3.79996 11.74 2.27996C11.9519 2.09896 12.2214 1.99951 12.5 1.99951C12.7786 1.99951 13.0481 2.09896 13.26 2.27996C15.01 3.80996 17.5 4.99996 19.5 4.99996C19.7652 4.99996 20.0196 5.10532 20.2071 5.29285C20.3946 5.48039 20.5 5.73474 20.5 5.99996V13Z" stroke="#16C586" stroke-width="2" stroke-linecap="round" stroke-linejoin="round"/>
<path d="M9.5 12L11.5 14L15.5 10" stroke="#16C586" stroke-width="2" stroke-linecap="round" stroke-linejoin="round"/>
</svg>
