<svg width="25" height="24" viewBox="0 0 25 24" fill="none" xmlns="http://www.w3.org/2000/svg">
<path d="M10.5649 12.4929L4.38491 13.8109C4.14503 13.863 3.89429 13.8185 3.68694 13.6871C3.47959 13.5558 3.33229 13.348 3.27691 13.1089L2.73991 10.9589C2.67677 10.6999 2.71262 10.4266 2.84044 10.1926C2.96825 9.9586 3.17883 9.78076 3.43091 9.69391L16.9349 5.25391" stroke="#16C586" stroke-width="2" stroke-linecap="round" stroke-linejoin="round"/>
<path d="M14.0601 11.747L18.3921 10.823" stroke="#16C586" stroke-width="2" stroke-linecap="round" stroke-linejoin="round"/>
<path d="M16.5 21L13.395 14.79" stroke="#16C586" stroke-width="2" stroke-linecap="round" stroke-linejoin="round"/>
<path d="M16.9849 5.94012C16.8564 5.4256 16.9375 4.88109 17.2103 4.42634C17.4832 3.97158 17.9255 3.64382 18.4399 3.51512L19.5299 3.24312C19.7871 3.17898 20.0591 3.21951 20.2864 3.35583C20.5136 3.49214 20.6775 3.71308 20.7419 3.97012L22.2569 10.0301C22.3214 10.2874 22.281 10.5597 22.1447 10.7872C22.0083 11.0147 21.7872 11.1787 21.5299 11.2431L20.4399 11.5151C19.9254 11.6437 19.3809 11.5626 18.9262 11.2897C18.4714 11.0169 18.1436 10.5746 18.0149 10.0601L16.9849 5.94012Z" stroke="#16C586" stroke-width="2" stroke-linecap="round" stroke-linejoin="round"/>
<path d="M6.65796 8.63306L7.77196 13.0891" stroke="#16C586" stroke-width="2" stroke-linecap="round" stroke-linejoin="round"/>
<path d="M8.5 21L11.605 14.79" stroke="#16C586" stroke-width="2" stroke-linecap="round" stroke-linejoin="round"/>
<path d="M12.5 15C13.6046 15 14.5 14.1046 14.5 13C14.5 11.8954 13.6046 11 12.5 11C11.3954 11 10.5 11.8954 10.5 13C10.5 14.1046 11.3954 15 12.5 15Z" stroke="#16C586" stroke-width="2" stroke-linecap="round" stroke-linejoin="round"/>
</svg>
