<svg width="17" height="18" viewBox="0 0 17 18" fill="none" xmlns="http://www.w3.org/2000/svg">
<g clip-path="url(#clip0_1_2527)">
<path d="M5.87355 5.24293L1.47357 5.90364L1.39564 5.92007C1.27766 5.95251 1.17012 6.01679 1.08398 6.10635C0.997836 6.19592 0.936191 6.30756 0.905335 6.42987C0.874479 6.55218 0.875518 6.68079 0.908345 6.80255C0.941173 6.92431 1.00461 7.03486 1.09219 7.12292L4.27976 10.3365L3.52804 14.8758L3.51908 14.9543C3.51186 15.0807 3.53719 15.2068 3.59249 15.3197C3.64779 15.4326 3.73107 15.5282 3.83379 15.5968C3.93651 15.6654 4.055 15.7045 4.17711 15.7101C4.29922 15.7157 4.42057 15.6876 4.52873 15.6286L8.46389 13.4858L12.3901 15.6286L12.459 15.6615C12.5729 15.7079 12.6966 15.7221 12.8175 15.7027C12.9384 15.6833 13.0521 15.6309 13.147 15.5509C13.2419 15.471 13.3146 15.3663 13.3576 15.2476C13.4005 15.129 13.4122 15.0006 13.3915 14.8758L12.639 10.3365L15.828 7.12221L15.8818 7.06149C15.9586 6.96347 16.009 6.8461 16.0278 6.72135C16.0466 6.59659 16.0331 6.46891 15.9888 6.3513C15.9444 6.2337 15.8707 6.13038 15.7752 6.05186C15.6798 5.97335 15.5659 5.92245 15.4452 5.90435L11.0453 5.24293L9.07837 1.11437C9.02146 0.994751 8.93335 0.894023 8.82402 0.823587C8.71469 0.753151 8.58851 0.71582 8.45975 0.71582C8.331 0.71582 8.20481 0.753151 8.09548 0.823587C7.98616 0.894023 7.89805 0.994751 7.84113 1.11437L5.87355 5.24293Z" fill="#FFB800"/>
</g>
<defs>
<clipPath id="clip0_1_2527">
<rect width="16.5517" height="17.1428" fill="white" transform="translate(0.188721)"/>
</clipPath>
</defs>
</svg>
