<svg width="65" height="64" viewBox="0 0 65 64" fill="none" xmlns="http://www.w3.org/2000/svg">
<g clip-path="url(#clip0_1_205)">
<path d="M40.5 32C40.5 32.7073 40.781 33.3856 41.281 33.8857C41.7811 34.3858 42.4594 34.6667 43.1667 34.6667C43.8739 34.6667 44.5522 34.3858 45.0523 33.8857C45.5524 33.3856 45.8333 32.7073 45.8333 32C45.8333 31.2928 45.5524 30.6145 45.0523 30.1144C44.5522 29.6143 43.8739 29.3334 43.1667 29.3334C42.4594 29.3334 41.7811 29.6143 41.281 30.1144C40.781 30.6145 40.5 31.2928 40.5 32Z" stroke="#F05032" stroke-width="4" stroke-linecap="round" stroke-linejoin="round"/>
<path d="M29.8333 21.3333C29.8333 22.0405 30.1142 22.7188 30.6143 23.2189C31.1144 23.719 31.7927 24 32.4999 24C33.2072 24 33.8854 23.719 34.3855 23.2189C34.8856 22.7188 35.1666 22.0405 35.1666 21.3333C35.1666 20.626 34.8856 19.9478 34.3855 19.4477C33.8854 18.9476 33.2072 18.6666 32.4999 18.6666C31.7927 18.6666 31.1144 18.9476 30.6143 19.4477C30.1142 19.9478 29.8333 20.626 29.8333 21.3333Z" stroke="#F05032" stroke-width="4" stroke-linecap="round" stroke-linejoin="round"/>
<path d="M29.8333 42.6667C29.8333 43.3739 30.1142 44.0522 30.6143 44.5523C31.1144 45.0524 31.7927 45.3333 32.4999 45.3333C33.2072 45.3333 33.8854 45.0524 34.3855 44.5523C34.8856 44.0522 35.1666 43.3739 35.1666 42.6667C35.1666 41.9594 34.8856 41.2811 34.3855 40.781C33.8854 40.281 33.2072 40 32.4999 40C31.7927 40 31.1144 40.281 30.6143 40.781C30.1142 41.2811 29.8333 41.9594 29.8333 42.6667Z" stroke="#F05032" stroke-width="4" stroke-linecap="round" stroke-linejoin="round"/>
<path d="M32.5 40V24" stroke="#F05032" stroke-width="4" stroke-linecap="round" stroke-linejoin="round"/>
<path d="M40.5001 29.3333L35.1667 24" stroke="#F05032" stroke-width="4" stroke-linecap="round" stroke-linejoin="round"/>
<path d="M29.8333 18.6666L24.7666 13.6" stroke="#F05032" stroke-width="4" stroke-linecap="round" stroke-linejoin="round"/>
<path d="M36.356 6.93332L57.5693 28.144C58.592 29.1667 59.1665 30.5537 59.1665 32C59.1665 33.4463 58.592 34.8333 57.5693 35.856L36.356 57.0693C35.3333 58.092 33.9463 58.6665 32.5 58.6665C31.0537 58.6665 29.6667 58.092 28.644 57.0693L7.43065 35.856C6.40801 34.8333 5.8335 33.4463 5.8335 32C5.8335 30.5537 6.40801 29.1667 7.43065 28.144L28.644 6.93065C29.6667 5.90801 31.0537 5.3335 32.5 5.3335C33.9463 5.3335 35.3333 5.91067 36.356 6.93332Z" stroke="#F05032" stroke-width="4" stroke-linecap="round" stroke-linejoin="round"/>
</g>
<defs>
<clipPath id="clip0_1_205">
<rect width="64" height="64" fill="white" transform="translate(0.5)"/>
</clipPath>
</defs>
</svg>
