<svg width="65" height="64" viewBox="0 0 65 64" fill="none" xmlns="http://www.w3.org/2000/svg">
<path d="M40.5 58.6667V48C40.871 44.6595 39.9132 41.307 37.8333 38.6667C45.8333 38.6667 53.8334 33.3334 53.8334 24C54.0467 20.6667 53.1133 17.3867 51.1667 14.6667C51.9133 11.6 51.9133 8.40004 51.1667 5.33337C51.1667 5.33337 48.5 5.33337 43.1667 9.33337C36.1267 8.00004 28.8734 8.00004 21.8334 9.33337C16.5 5.33337 13.8334 5.33337 13.8334 5.33337C13.0334 8.40004 13.0334 11.6 13.8334 14.6667C11.8917 17.3757 10.9493 20.6741 11.1667 24C11.1667 33.3334 19.1667 38.6667 27.1667 38.6667C26.1267 39.9734 25.3533 41.4667 24.9 43.0667C24.4467 44.6667 24.3134 46.3467 24.5 48V58.6667" stroke="#EBEBEB" stroke-width="4" stroke-linecap="round" stroke-linejoin="round"/>
<path d="M24.4999 48C12.4733 53.3333 11.1666 42.6666 5.83325 42.6666" stroke="#EBEBEB" stroke-width="4" stroke-linecap="round" stroke-linejoin="round"/>
</svg>
