<svg width="49" height="48" viewBox="0 0 49 48" fill="none" xmlns="http://www.w3.org/2000/svg">
<g clip-path="url(#clip0_1_56)">
<path d="M13.112 17.4221C7.908 18.8681 4.5 21.2741 4.5 24.0001C4.5 28.4201 13.454 32.0001 24.5 32.0001C26.046 32.0001 27.552 31.9301 28.996 31.7961" stroke="#221c3e" stroke-width="2" stroke-linecap="round" stroke-linejoin="round"/>
<path d="M35.884 30.578C41.09 29.134 44.5 26.726 44.5 24C44.5 19.58 35.546 16 24.5 16C22.954 16 21.448 16.07 20 16.204" stroke="#221c3e" stroke-width="2" stroke-linecap="round" stroke-linejoin="round"/>
<path d="M13.11 30.574C11.758 35.804 12.14 39.96 14.5 41.32C18.326 43.53 25.906 37.566 31.428 28C32.202 26.66 32.894 25.322 33.5 24" stroke="#221c3e" stroke-width="2" stroke-linecap="round" stroke-linejoin="round"/>
<path d="M35.888 17.4321C37.242 12.2001 36.862 8.0401 34.5 6.6801C30.674 4.4701 23.094 10.4341 17.572 20.0001C16.798 21.3401 16.106 22.6801 15.498 24.0001" stroke="#221c3e" stroke-width="2" stroke-linecap="round" stroke-linejoin="round"/>
<path d="M24.5 10.8479C20.65 7.06389 16.86 5.31589 14.5 6.67989C10.674 8.88789 12.048 18.4339 17.572 27.9999C18.344 29.3399 19.158 30.6079 19.996 31.7919" stroke="#221c3e" stroke-width="2" stroke-linecap="round" stroke-linejoin="round"/>
<path d="M24.5 37.1481C28.352 40.9341 32.142 42.6841 34.5 41.3201C38.326 39.1121 36.952 29.5661 31.428 20.0001C30.678 18.7001 29.868 17.4341 29.004 16.2061" stroke="#221c3e" stroke-width="2" stroke-linecap="round" stroke-linejoin="round"/>
<path d="M23.5 25.732C23.7275 25.8654 23.9792 25.9524 24.2405 25.9882C24.5019 26.0239 24.7677 26.0076 25.0227 25.9402C25.2777 25.8727 25.5168 25.7556 25.7263 25.5953C25.9359 25.4351 26.1116 25.235 26.2435 25.0066C26.3754 24.7782 26.4608 24.5259 26.4948 24.2644C26.5288 24.0028 26.5107 23.7371 26.4416 23.4826C26.3725 23.228 26.2537 22.9897 26.0921 22.7812C25.9305 22.5728 25.7293 22.3983 25.5 22.268C25.0409 22.0069 24.4971 21.9381 23.9875 22.0765C23.4778 22.2148 23.0435 22.5492 22.7794 23.0066C22.5154 23.4639 22.4429 24.0072 22.5779 24.5178C22.7129 25.0284 23.0444 25.4649 23.5 25.732Z" stroke="#221c3e" stroke-width="2" stroke-linecap="round" stroke-linejoin="round"/>
</g>
<defs>
<clipPath id="clip0_1_56">
<rect width="48" height="48" fill="#221c3e" transform="translate(0.5)"/>
</clipPath>
</defs>
</svg>
