<svg width="49" height="48" viewBox="0 0 49 48" fill="none" xmlns="http://www.w3.org/2000/svg">
<g clip-path="url(#clip0_1_78)">
<path d="M23.834 12C18.854 12 15.746 14.444 14.5 19.334C16.366 16.888 18.546 15.974 21.034 16.584C22.454 16.932 23.468 17.944 24.59 19.064C26.422 20.888 28.59 23 33.166 23C38.146 23 41.254 20.556 42.5 15.666C40.634 18.112 38.454 19.026 35.966 18.416C34.546 18.068 33.532 17.056 32.41 15.936C30.578 14.112 28.46 12 23.834 12ZM15.834 25C10.854 25 7.746 27.444 6.5 32.334C8.366 29.888 10.546 28.974 13.034 29.584C14.454 29.932 15.468 30.944 16.59 32.064C18.422 33.888 20.54 36 25.166 36C30.146 36 33.254 33.556 34.5 28.666C32.634 31.112 30.454 32.026 27.966 31.416C26.546 31.068 25.532 30.056 24.41 28.936C22.578 27.112 20.46 25 15.834 25Z" stroke="#221c3e" stroke-width="3" stroke-linecap="round" stroke-linejoin="round"/>
</g>
<defs>
<clipPath id="clip0_1_78">
<rect width="48" height="48" fill="#221c3e" transform="translate(0.5)"/>
</clipPath>
</defs>
</svg>
