<svg width="14" height="16" viewBox="0 0 14 16" fill="none" xmlns="http://www.w3.org/2000/svg">
<path d="M8.99994 14.6666V11.9999C9.09269 11.1648 8.85323 10.3267 8.33328 9.66658C10.3333 9.66658 12.3333 8.33325 12.3333 5.99992C12.3866 5.16659 12.1533 4.34659 11.6666 3.66659C11.8533 2.89992 11.8533 2.09992 11.6666 1.33325C11.6666 1.33325 10.9999 1.33325 9.66661 2.33325C7.90661 1.99992 6.09328 1.99992 4.33328 2.33325C2.99994 1.33325 2.33328 1.33325 2.33328 1.33325C2.13328 2.09992 2.13328 2.89992 2.33328 3.66659C1.84786 4.34384 1.61226 5.16844 1.66661 5.99992C1.66661 8.33325 3.66661 9.66658 5.66661 9.66658C5.40661 9.99325 5.21328 10.3666 5.09994 10.7666C4.98661 11.1666 4.95328 11.5866 4.99994 11.9999V14.6666" stroke="#0F0920" stroke-width="2" stroke-linecap="round" stroke-linejoin="round"/>
</svg>
