<svg width="22" height="27" viewBox="0 0 22 27" fill="none" xmlns="http://www.w3.org/2000/svg">
<path d="M14.5 25.0955V20.4289C14.6623 18.9674 14.2432 17.5007 13.3333 16.3455C16.8333 16.3455 20.3333 14.0122 20.3333 9.92887C20.4266 8.47054 20.0183 7.03554 19.1666 5.84554C19.4933 4.50387 19.4933 3.10387 19.1666 1.76221C19.1666 1.76221 18 1.76221 15.6666 3.51221C12.5866 2.92887 9.4133 2.92887 6.3333 3.51221C3.99996 1.76221 2.8333 1.76221 2.8333 1.76221C2.4833 3.10387 2.4833 4.50387 2.8333 5.84554C1.98381 7.03074 1.57151 8.47379 1.66663 9.92887C1.66663 14.0122 5.16663 16.3455 8.66663 16.3455C8.21163 16.9172 7.87329 17.5705 7.67496 18.2705C7.47663 18.9705 7.4183 19.7055 7.49996 20.4289V25.0955" stroke="white" stroke-width="2" stroke-linecap="round" stroke-linejoin="round"/>
</svg>
