<svg width="49" height="48" viewBox="0 0 49 48" fill="none" xmlns="http://www.w3.org/2000/svg">
<g clip-path="url(#clip0_1_71)">
<path d="M30.5 35C31.14 35.64 32.008 36 32.914 36H34C35.38 36 36.5 34.88 36.5 33.5V33C36.5 32.2044 36.1839 31.4413 35.6213 30.8787C35.0587 30.3161 34.2956 30 33.5 30C32.7044 30 31.9413 29.6839 31.3787 29.1213C30.8161 28.5587 30.5 27.7956 30.5 27V26.5C30.5 25.12 31.62 24 33 24H34.086C34.992 24 35.86 24.36 36.5 25" stroke="white" stroke-width="3" stroke-linecap="round" stroke-linejoin="round"/>
<path d="M18.5 24H26.5" stroke="white" stroke-width="3" stroke-linecap="round" stroke-linejoin="round"/>
<path d="M22.5 24V36" stroke="white" stroke-width="3" stroke-linecap="round" stroke-linejoin="round"/>
<path d="M42.5 38V10C42.5 8.93913 42.0786 7.92172 41.3284 7.17157C40.5783 6.42143 39.5609 6 38.5 6H10.5C9.43913 6 8.42172 6.42143 7.67157 7.17157C6.92143 7.92172 6.5 8.93913 6.5 10V38C6.5 39.0609 6.92143 40.0783 7.67157 40.8284C8.42172 41.5786 9.43913 42 10.5 42H38.5C39.5609 42 40.5783 41.5786 41.3284 40.8284C42.0786 40.0783 42.5 39.0609 42.5 38Z" stroke="white" stroke-width="3" stroke-linecap="round" stroke-linejoin="round"/>
</g>
<defs>
<clipPath id="clip0_1_71">
<rect width="48" height="48" fill="white" transform="translate(0.5)"/>
</clipPath>
</defs>
</svg>
